<svg xmlns="http://www.w3.org/2000/svg" width="24" height="24" viewBox="0 0 24 24"><defs><style>.a{fill:none;}.b{fill:#273240;}</style></defs><g transform="translate(-717 -787)"><rect class="a" width="24" height="24" transform="translate(717 787)"/><path class="b" d="M18.2,14.214l-1.179-.684a3.167,3.167,0,0,1,.954-.666.563.563,0,0,0,.324-.7.516.516,0,0,0-.491-.357.545.545,0,0,0-.2.04,4.252,4.252,0,0,0-1.525,1.136L12.577,10.95l3.505-2.038a4.22,4.22,0,0,0,1.525,1.136.545.545,0,0,0,.2.04A.52.52,0,0,0,18.3,9.73a.563.563,0,0,0-.324-.7,3.265,3.265,0,0,1-.954-.666L18.2,7.685a.551.551,0,0,0-.277-1.026.571.571,0,0,0-.277.073l-1.172.684a3.274,3.274,0,0,1-.095-1.165.562.562,0,0,0-.437-.63.556.556,0,0,0-.109-.011.52.52,0,0,0-.513.451,4.234,4.234,0,0,0,.222,1.9L12.049,10V6.389a4.269,4.269,0,0,0,1.736-.761.521.521,0,0,0,.066-.757.56.56,0,0,0-.415-.186.57.57,0,0,0-.346.12,3.159,3.159,0,0,1-1.041.5V3.925a.564.564,0,0,0-1.128,0V5.29a3.254,3.254,0,0,1-1.041-.5.557.557,0,0,0-.761.066.52.52,0,0,0,.066.757,4.269,4.269,0,0,0,1.736.761V9.989L7.427,7.95a4.26,4.26,0,0,0,.218-1.9.514.514,0,0,0-.51-.451.553.553,0,0,0-.546.641A3.262,3.262,0,0,1,6.5,7.4L5.319,6.724a.561.561,0,0,0-.277-.073.551.551,0,0,0-.277,1.026l1.179.684a3.215,3.215,0,0,1-.954.666.563.563,0,0,0-.324.7.516.516,0,0,0,.491.357.545.545,0,0,0,.2-.04A4.252,4.252,0,0,0,6.884,8.9l3.505,2.038L6.884,12.981a4.22,4.22,0,0,0-1.525-1.136.545.545,0,0,0-.2-.04.52.52,0,0,0-.491.357.565.565,0,0,0,.324.7,3.215,3.215,0,0,1,.954.666l-1.179.684a.551.551,0,0,0,.277,1.026.571.571,0,0,0,.277-.073L6.5,14.477a3.283,3.283,0,0,1,.095,1.165.553.553,0,0,0,.546.641.52.52,0,0,0,.513-.451,4.234,4.234,0,0,0-.222-1.9l3.494-2.038V15.5a4.269,4.269,0,0,0-1.736.761.521.521,0,0,0-.066.757.56.56,0,0,0,.415.186.57.57,0,0,0,.346-.12,3.206,3.206,0,0,1,1.041-.5v1.365a.564.564,0,0,0,1.128,0V16.591a3.254,3.254,0,0,1,1.041.5.57.57,0,0,0,.346.12.56.56,0,0,0,.415-.186.52.52,0,0,0-.066-.757,4.269,4.269,0,0,0-1.736-.761V11.892l3.494,2.038a4.26,4.26,0,0,0-.218,1.9.514.514,0,0,0,.51.451.553.553,0,0,0,.546-.641,3.277,3.277,0,0,1,.095-1.165l1.172.684a.561.561,0,0,0,.277.073.547.547,0,0,0,.277-1.019Z" transform="translate(717.507 787.625)"/></g></svg>