<svg xmlns="http://www.w3.org/2000/svg" width="24" height="24" viewBox="0 0 24 24"><defs><style>.a{fill:#273240;}.b{fill:none;}</style></defs><g transform="translate(-432 -704)"><g transform="translate(436 708.037)"><circle class="a" cx="0.702" cy="0.702" r="0.702" transform="translate(7.87 13.597)"/><circle class="a" cx="0.702" cy="0.702" r="0.702" transform="translate(7.87 11.14)"/><circle class="a" cx="0.702" cy="0.702" r="0.702" transform="translate(10.176 13.597)"/><circle class="a" cx="0.702" cy="0.702" r="0.702" transform="translate(7.87 9.506)"/><circle class="a" cx="0.702" cy="0.702" r="0.702" transform="translate(5.564 13.597)"/><circle class="a" cx="0.702" cy="0.702" r="0.702" transform="translate(5.564 11.14)"/><circle class="a" cx="0.702" cy="0.702" r="0.702" transform="translate(5.564 9.506)"/><circle class="a" cx="0.702" cy="0.702" r="0.702" transform="translate(12.232 9.506)"/><circle class="a" cx="0.702" cy="0.702" r="0.702" transform="translate(12.232 11.14)"/><path class="a" d="M14.4,6.537a3.142,3.142,0,0,0-2.639-1.35H10.27A5.145,5.145,0,0,0,0,5.64V15.5H1.172V5.64a3.972,3.972,0,0,1,7.918-.454H7.655A3.147,3.147,0,0,0,4.966,6.624a3.58,3.58,0,0,0-.6,2v.662H15.039v-.68A3.568,3.568,0,0,0,14.4,6.537Zm-8.8,1.579a2.35,2.35,0,0,1,.349-.841,1.957,1.957,0,0,1,1.714-.917h4.1a1.952,1.952,0,0,1,1.674.854,2.342,2.342,0,0,1,.383.9Z" transform="translate(0 -0.499)"/><circle class="a" cx="0.702" cy="0.702" r="0.702" transform="translate(12.232 13.597)"/><circle class="a" cx="0.702" cy="0.702" r="0.702" transform="translate(10.176 11.14)"/><circle class="a" cx="0.702" cy="0.702" r="0.702" transform="translate(10.176 9.506)"/></g><rect class="b" width="24" height="24" transform="translate(432 704)"/></g></svg>