<svg xmlns="http://www.w3.org/2000/svg" width="21.914" height="16.847" viewBox="0 0 21.914 16.847">
  <g id="Dormbed" transform="translate(0 -83.859)">
    <path id="Caminho_2135" data-name="Caminho 2135" d="M21.332,204.076H.581A.64.64,0,0,0,0,204.76v3.974a.64.64,0,0,0,.581.684H.823l-.286.95a.4.4,0,0,0,.2.485.28.28,0,0,0,.108.022.331.331,0,0,0,.3-.253l.362-1.2h18.9l.362,1.2a.331.331,0,0,0,.3.253.28.28,0,0,0,.108-.022.4.4,0,0,0,.2-.485l-.286-.95h.242a.64.64,0,0,0,.581-.684V204.76A.64.64,0,0,0,21.332,204.076Z" transform="translate(0 -110.17)" fill="#2c2f33"/>
    <path id="Caminho_2512" data-name="Caminho 2512" d="M21.332,204.076H.581A.64.64,0,0,0,0,204.76v3.974c10.82.055,11.276-.007,21.914,0V204.76A.64.64,0,0,0,21.332,204.076Z" transform="translate(0 -118.17)" fill="#2c2f33"/>
    <path id="Caminho_2513" data-name="Caminho 2513" d="M251.131,156.262c-.479,0-.868.6-.868,1.334v.115h10.392V157.6c0-.735-.389-1.334-.868-1.334Z" transform="translate(-250.104 -72.403)" fill="#2c2f33"/>
    <path id="Caminho_2514" data-name="Caminho 2514" d="M251.131,156.262c-.479,0-.868.6-.868,1.334v.115h10.392V157.6c0-.735-.389-1.334-.868-1.334Z" transform="translate(-250.104 -64.404)" fill="#2c2f33"/>
  </g>
</svg>
