<svg xmlns="http://www.w3.org/2000/svg" width="24" height="24" viewBox="0 0 24 24"><defs><style>.a{fill:none;}.b{fill:#273240;}</style></defs><g transform="translate(3.273)"><rect class="a" width="24" height="24" transform="translate(-3.273)"/><g transform="translate(-47.273 2)"><g transform="translate(48)"><g transform="translate(0)"><path class="b" d="M61.553,0H49.711A1.714,1.714,0,0,0,48,1.711V17.237a1.713,1.713,0,0,0,1.579,1.7v.537a.526.526,0,1,0,1.053,0v-.526h10v.526a.526.526,0,1,0,1.053,0v-.542a1.71,1.71,0,0,0,1.579-1.7V1.705A1.713,1.713,0,0,0,61.553,0Zm.658,17.237a.658.658,0,0,1-.658.658H49.711a.658.658,0,0,1-.658-.658V1.711a.658.658,0,0,1,.658-.658H61.553a.658.658,0,0,1,.658.658Z" transform="translate(-48)"/><path class="b" d="M272.588,106.667a.589.589,0,0,0-.588.588v3.526a.588.588,0,0,0,1.176,0v-3.526A.59.59,0,0,0,272.588,106.667Z" transform="translate(-261.043 -101.568)"/></g></g></g></g></svg>