<svg xmlns="http://www.w3.org/2000/svg" width="16.224" height="16" viewBox="0 0 16.224 16">
  <g id="icon_View_Lake" transform="translate(0 -3.193)">
    <path id="Caminho_2296" data-name="Caminho 2296" d="M119.544,285.882a3.86,3.86,0,0,0-3.04-1.463,4.832,4.832,0,0,0-3.019,1.176,7.962,7.962,0,0,1-3.99,1.547c-.945.155-1.692.278-1.692.951,0,1.265,2.165,2.574,5.788,2.574,3.884,0,6.007-.913,6.49-2.791A2.361,2.361,0,0,0,119.544,285.882Z" transform="translate(-103.912 -271.475)" fill="#2C2F33"/>
    <path id="Caminho_2297" data-name="Caminho 2297" d="M8.224,13.6a.508.508,0,0,0-.508-.508H7.44V11.526H9.981a.264.264,0,0,0,.241-.133.268.268,0,0,0-.025-.278l-1.409-2.1h.4a.243.243,0,0,0,.222-.126.249.249,0,0,0-.025-.26L7.918,6.513H8.4A.217.217,0,0,0,8.6,6.4a.214.214,0,0,0-.028-.23L6.71,3.63a.242.242,0,0,0-.2-.1.245.245,0,0,0-.2.1L4.454,6.166a.21.21,0,0,0,.178.346h.477L4.334,7.634,3.078,5.923a.239.239,0,0,0-.393,0l-1.4,1.9a.212.212,0,0,0,.178.348h.26L.67,9.7a.23.23,0,0,0,.2.374h.211L.054,11.594a.262.262,0,0,0-.026.275A.261.261,0,0,0,.269,12H2.122v1.1H2.048a.508.508,0,1,0,0,1.016H7.716A.508.508,0,0,0,8.224,13.6ZM3.68,12H5.493a.339.339,0,0,0,.05,0v1.1H3.68V12Z" transform="translate(0 -0.335)" fill="#2C2F33"/>
  </g>
</svg>
