<svg xmlns="http://www.w3.org/2000/svg" width="17.187" height="16" viewBox="0 0 17.187 16">
  <g id="icon_View_Countryside" transform="translate(-0.66 -6.302)">
    <path id="Caminho_2295" data-name="Caminho 2295" d="M35.234,50.769a2.085,2.085,0,0,0-1.429-2.382,2.085,2.085,0,1,0-4.011-.8q0,.058,0,.117a2.083,2.083,0,0,0-1.329,3.522,2.392,2.392,0,0,0-.787,1.783A2.415,2.415,0,0,0,31,55.25l-.036,1.57a9.045,9.045,0,0,0-2.818-.653l-.408-.035c-1.124-.1-2.139-.186-2.992-.274L24.706,54.4a1.3,1.3,0,0,0,1.649-1.256,1.3,1.3,0,0,0-.491-1.018,1.15,1.15,0,0,0,.011-.156,1.137,1.137,0,0,0-.708-1.053,1.138,1.138,0,1,0-2.222-.367,1.137,1.137,0,0,0-.7,1.842,1.29,1.29,0,0,0-.359.9,1.3,1.3,0,0,0,1.658,1.253l-.027,1.175c-1.137-.157-1.377-.286-1.426-.339-.046-.137-.008-.243.132-.376a.252.252,0,0,0,.083-.261.327.327,0,0,0-.262-.2l-.016,0H19.916a.762.762,0,0,0-.437.158.972.972,0,0,0-.417.927c.129.546.87.947,2.268,1.225,3.616.721,3.678,1.531,3.738,2.313a4.315,4.315,0,0,1-.36,1.7l-.05.135a.352.352,0,0,0,.032.337.5.5,0,0,0,.389.172h7.089a.678.678,0,0,0,.535-.33,3.235,3.235,0,0,0,.532-2.185,2.34,2.34,0,0,0-.229-.5l-.08-3.52a2.414,2.414,0,0,0,2.308-4.2Z" transform="translate(-18.383 -39.204)" fill="#2C2F33"/>
  </g>
</svg>
