<svg xmlns="http://www.w3.org/2000/svg" width="16.787" height="14" viewBox="0 0 16.787 14">
  <path id="icon_View_Ocean" d="M14.59,14.848a5.006,5.006,0,0,0-2.476.671,3.426,3.426,0,0,1-1.721.5,3.2,3.2,0,0,1-1.721-.5,4.9,4.9,0,0,0-4.952,0,3.4,3.4,0,0,1-1.721.5V17.66a5.006,5.006,0,0,0,2.476-.671,3.4,3.4,0,0,1,1.721-.5,3.244,3.244,0,0,1,1.721.5,4.9,4.9,0,0,0,4.952,0,3.426,3.426,0,0,1,1.721-.5,3.2,3.2,0,0,1,1.721.5,4.952,4.952,0,0,0,2.476.671V16.023a3.2,3.2,0,0,1-1.721-.5A5.006,5.006,0,0,0,14.59,14.848Zm0-3.735a5.1,5.1,0,0,0-2.476.671,3.512,3.512,0,0,1-1.721.5,3.2,3.2,0,0,1-1.721-.5A4.926,4.926,0,0,0,6.2,11.113a5.013,5.013,0,0,0-2.476.671,3.485,3.485,0,0,1-1.721.5v1.637a5.1,5.1,0,0,0,2.476-.671,3.191,3.191,0,0,1,3.441,0,4.926,4.926,0,0,0,2.476.671,5.013,5.013,0,0,0,2.476-.671,3.191,3.191,0,0,1,3.441,0,4.952,4.952,0,0,0,2.476.671V12.288a3.2,3.2,0,0,1-1.721-.5A5.006,5.006,0,0,0,14.59,11.113Zm2.476-6.782a4.9,4.9,0,0,0-4.952,0,3.512,3.512,0,0,1-1.721.5,3.2,3.2,0,0,1-1.721-.5A5.013,5.013,0,0,0,6.2,3.66a4.926,4.926,0,0,0-2.476.671A3.4,3.4,0,0,1,2,4.835v1.62a5.1,5.1,0,0,0,2.476-.671A3.4,3.4,0,0,1,6.2,5.28a3.244,3.244,0,0,1,1.721.5,4.926,4.926,0,0,0,2.476.671,5.013,5.013,0,0,0,2.476-.671,3.512,3.512,0,0,1,1.721-.5,3.2,3.2,0,0,1,1.721.5,4.952,4.952,0,0,0,2.476.671V4.818A3.345,3.345,0,0,1,17.066,4.331ZM14.59,7.378a5.1,5.1,0,0,0-2.476.671,3.191,3.191,0,0,1-3.441,0A4.926,4.926,0,0,0,6.2,7.378a5.013,5.013,0,0,0-2.476.671A3.2,3.2,0,0,1,2,8.553V10.19a5.1,5.1,0,0,0,2.476-.671,3.512,3.512,0,0,1,1.721-.5,3.267,3.267,0,0,1,1.721.5,4.926,4.926,0,0,0,2.476.671,5.013,5.013,0,0,0,2.476-.671,3.512,3.512,0,0,1,1.721-.5,3.2,3.2,0,0,1,1.721.5,4.952,4.952,0,0,0,2.476.671V8.553a3.2,3.2,0,0,1-1.721-.5,5.006,5.006,0,0,0-2.476-.671Z" transform="translate(-2 -3.66)" fill="#2C2F33"/>
</svg>
