<svg xmlns="http://www.w3.org/2000/svg" width="17.778" height="16" viewBox="0 0 17.778 16">
  <g id="icon_View_Pool" transform="translate(-2 -3)">
    <path id="Caminho_2293" data-name="Caminho 2293" d="M19.778,19a3.4,3.4,0,0,1-1.938-.569,1.669,1.669,0,0,0-1.022-.32,1.6,1.6,0,0,0-1.022.32,3.585,3.585,0,0,1-3.876,0,1.669,1.669,0,0,0-1.022-.32,1.6,1.6,0,0,0-1.022.32A3.459,3.459,0,0,1,7.929,19a3.4,3.4,0,0,1-1.938-.569,1.614,1.614,0,0,0-1.022-.32,1.614,1.614,0,0,0-1.022.32A3.459,3.459,0,0,1,2,19V17.222a1.6,1.6,0,0,0,1.022-.32,3.459,3.459,0,0,1,1.947-.569,3.4,3.4,0,0,1,1.938.569,1.6,1.6,0,0,0,1.022.32,1.6,1.6,0,0,0,1.022-.32,3.459,3.459,0,0,1,1.947-.569,3.4,3.4,0,0,1,1.938.569,1.669,1.669,0,0,0,1.022.32,1.614,1.614,0,0,0,1.022-.32,3.585,3.585,0,0,1,3.876,0,1.6,1.6,0,0,0,1.022.32V19Zm0-4a3.4,3.4,0,0,1-1.938-.569,1.669,1.669,0,0,0-1.022-.32,1.6,1.6,0,0,0-1.022.32,3.585,3.585,0,0,1-3.876,0,1.669,1.669,0,0,0-1.022-.32,1.6,1.6,0,0,0-1.022.32A3.4,3.4,0,0,1,7.938,15,3.4,3.4,0,0,1,6,14.431a1.669,1.669,0,0,0-1.022-.32,1.614,1.614,0,0,0-1.022.32A3.518,3.518,0,0,1,2,15V13.222a1.6,1.6,0,0,0,1.022-.32,3.4,3.4,0,0,1,1.938-.569A3.4,3.4,0,0,1,6.9,12.9a1.669,1.669,0,0,0,1.022.32,1.6,1.6,0,0,0,1.022-.32,3.585,3.585,0,0,1,3.876,0,1.669,1.669,0,0,0,1.022.32,1.614,1.614,0,0,0,1.022-.32,3.585,3.585,0,0,1,3.876,0,1.669,1.669,0,0,0,1.022.32V15ZM7.929,11a1.6,1.6,0,0,0,1.022-.32,3.459,3.459,0,0,1,1.947-.569,3.4,3.4,0,0,1,1.938.569,1.669,1.669,0,0,0,1.022.32,1.614,1.614,0,0,0,1.022-.32c.107-.062.231-.133.364-.2l-5.707-5.7A5.917,5.917,0,0,0,4.667,3V5.222A4.374,4.374,0,0,1,8.222,6.556l.889.889L6.222,10.333a4.864,4.864,0,0,1,.684.347A1.6,1.6,0,0,0,7.929,11Z" fill="#2C2F33"/>
    <circle id="Elipse_18" data-name="Elipse 18" cx="2.5" cy="2.5" r="2.5" transform="translate(11.778 3)" fill="#2C2F33"/>
  </g>
</svg>
