<svg xmlns="http://www.w3.org/2000/svg" width="14" height="15" viewBox="0 0 14 15">
  <g id="icon_View_Various" transform="translate(-573.16 -471.4)">
    <path id="Caminho_2588" data-name="Caminho 2588" d="M583.16,486.4h-6a4.005,4.005,0,0,1-4-4v-7a4,4,0,0,1,4-4h6a4,4,0,0,1,4,4v7A4,4,0,0,1,583.16,486.4Zm-6-13a2,2,0,0,0-2,2v7a2,2,0,0,0,2,2h6a2,2,0,0,0,2-2v-7a2,2,0,0,0-2-2Z" fill="#2C2F33"/>
    <rect id="Ret창ngulo_2022" data-name="Ret창ngulo 2022" width="2" height="14" transform="translate(579.16 471.4)" fill="#2C2F33"/>
    <rect id="Ret창ngulo_2023" data-name="Ret창ngulo 2023" width="12" height="2" transform="translate(574.66 477.9)" fill="#2C2F33"/>
  </g>
</svg>
