<svg xmlns="http://www.w3.org/2000/svg" width="16.01" height="16" viewBox="0 0 16.01 16">
  <g id="icon_View_Forest" transform="translate(0 -0.168)">
    <g id="Grupo_3134" data-name="Grupo 3134" transform="translate(0 0.168)">
      <g id="Grupo_3133" data-name="Grupo 3133">
        <path id="Caminho_2262" data-name="Caminho 2262" d="M9.322,11.635,7.173,8.626H8a.469.469,0,0,0,.39-.729L6.379,4.876h.687a.469.469,0,0,0,.375-.75L5.1.345a.485.485,0,0,0-.75,0L2,4.126a.469.469,0,0,0,.375.75h.687L1.05,7.9a.469.469,0,0,0,.39.729h.83L.09,11.635a.469.469,0,0,0,.381.741H8.94a.469.469,0,0,0,.381-.741Z" transform="translate(-0.003 -0.168)" fill="#2C2F33"/>
      </g>
    </g>
    <g id="Grupo_3136" data-name="Grupo 3136" transform="translate(0 13.324)">
      <g id="Grupo_3135" data-name="Grupo 3135">
        <path id="Caminho_2263" data-name="Caminho 2263" d="M15.541,422.738H12.227v-1.906H10.351v1.906H5.66v-1.906H3.784v1.906H.469a.469.469,0,1,0,0,.938H15.541a.469.469,0,1,0,0-.937Z" transform="translate(0 -420.832)" fill="#2C2F33"/>
      </g>
    </g>
    <g id="Grupo_3138" data-name="Grupo 3138" transform="translate(8.479 0.168)">
      <g id="Grupo_3137" data-name="Grupo 3137">
        <path id="Caminho_2264" data-name="Caminho 2264" d="M278.446,11.635l-2.18-3.009h.83a.469.469,0,0,0,.39-.729l-2.014-3.021h.687a.469.469,0,0,0,.375-.75L274.189.345a.485.485,0,0,0-.75,0L271.1,4.126a.469.469,0,0,0,.375.75h.687L271.1,6.467l.607.91a1.408,1.408,0,0,1-.361,1.931l1.273,1.782a1.39,1.39,0,0,1,.167,1.286h5.282a.469.469,0,0,0,.381-.741Z" transform="translate(-271.002 -0.168)" fill="#2C2F33"/>
      </g>
    </g>
  </g>
</svg>
