<svg xmlns="http://www.w3.org/2000/svg" width="16" height="16" viewBox="0 0 16 16">
  <g id="icon_View_Park" transform="translate(0 0)">
    <path id="Caminho_2285" data-name="Caminho 2285" d="M4.018,13.016A4.292,4.292,0,0,0,8,8.5,4.91,4.91,0,0,0,6.834,5.321a5.618,5.618,0,0,0,.172-1.3C7.006,1.821,5.665,0,4.018,0S1,1.821,1,4.018a5.624,5.624,0,0,0,.172,1.3A4.8,4.8,0,0,0,0,8.5,4.317,4.317,0,0,0,4.018,13.016Zm0,0" transform="translate(0 0)" fill="#2C2F33"/>
    <path id="Caminho_2286" data-name="Caminho 2286" d="M.469,366.98H15.531a.5.5,0,0,0,0-1h-.469v-1h.469a.5.5,0,0,0,0-1h-.469V362.5a.484.484,0,0,0-.469-.5H11.75a.484.484,0,0,0-.469.5v1.494h-.469a.5.5,0,0,0,0,1h.469v1H9.406v-2.1a4.042,4.042,0,0,1-.937.11,3.913,3.913,0,0,1-.937-.118v2.11H4.719v-2.1a4.036,4.036,0,0,1-1.875,0v2.1H.469a.5.5,0,0,0,0,1Zm11.75-1.992h1.906v1H12.219Zm0,0" transform="translate(0 -350.981)" fill="#2C2F33"/>
    <path id="Caminho_2287" data-name="Caminho 2287" d="M215.359,5.084a5.877,5.877,0,0,1,1.1,3.416,5.792,5.792,0,0,1-1.654,4.1,3.584,3.584,0,0,0,1.654.417A4.292,4.292,0,0,0,220.44,8.5a4.8,4.8,0,0,0-1.168-3.179,5.624,5.624,0,0,0,.172-1.3c0-2.2-1.34-4.018-2.988-4.018a2.562,2.562,0,0,0-1.873.905,5.908,5.908,0,0,1,.777,4.179Zm0,0" transform="translate(-208.097)" fill="#2C2F33"/>
  </g>
</svg>
