<svg xmlns="http://www.w3.org/2000/svg" width="16.552" height="16" viewBox="0 0 16.552 16">
  <path id="icon_View_City" d="M15.172,15.448V13.725a1.125,1.125,0,0,0,.552-1.036c0-.609-.37-1.1-.828-1.1s-.828.494-.828,1.1a1.125,1.125,0,0,0,.552,1.036v1.723H12.69V7.066l-1.655-.828V7.724h.828v.552h-.828v1.1h.828V9.93h-.828v1.1h.828v.552h-.828v1.1h.828v.552h-.828v1.1h.828V14.9h-.828v.552h-.552V4.345L7.172,3.4V4.413H9.1v.552H7.172v1.1H9.1V6.62H7.172v1.1H9.1v.552H7.172v1.1H9.1V9.93H7.172v1.1H9.1v.552H7.172v1.1H9.1v.552H7.172v1.1H9.1V14.9H7.172v.552H6.621V0H1.655V1.1H4.138v.552H1.655v1.1H4.138V3.31H1.655v1.1H4.138v.552H1.655v1.1H4.138V6.62H1.655v1.1H4.138v.552H1.655v1.1H4.138V9.93H1.655v1.1H4.138v.552H1.655v1.1H4.138v.552H1.655v1.1H4.138V14.9H1.655v.552H0V16H16.552v-.552Zm0,0" transform="translate(0 0.001)" fill="#2C2F33"/>
</svg>
