<svg xmlns="http://www.w3.org/2000/svg" width="16.011" height="16" viewBox="0 0 16.011 16">
  <g id="icon_View_Beach" transform="translate(0 -0.249)">
    <path id="Caminho_2267" data-name="Caminho 2267" d="M314.395,957.035l.812.542h10.831v-.542Zm0,0" transform="translate(-310.027 -943.494)" fill="#2C2F33"/>
    <path id="Caminho_2268" data-name="Caminho 2268" d="M723.711,1112.97h3.249v.542h-3.249Zm0,0" transform="translate(-713.657 -1097.262)" fill="#2C2F33"/>
    <path id="Caminho_2269" data-name="Caminho 2269" d="M645.738,1035h5.415v.542h-5.415Zm0,0" transform="translate(-636.767 -1020.376)" fill="#2C2F33"/>
    <path id="Caminho_2270" data-name="Caminho 2270" d="M668.691,549.62a2.437,2.437,0,1,1-3.446,0A2.437,2.437,0,0,1,668.691,549.62Zm0,0" transform="translate(-655.299 -541.035)" fill="#2C2F33"/>
    <path id="Caminho_2271" data-name="Caminho 2271" d="M2.638,13.193a19.95,19.95,0,0,0,2.8-8.727L8.359,7.4a2.377,2.377,0,0,0-.433-2.745l-.257-.26a2.317,2.317,0,0,0-.585-.428L9.8,3.979A2.376,2.376,0,0,0,7.554,2.344l-.366,0a2.36,2.36,0,0,0-.768.126L8.369.526A2.377,2.377,0,0,0,5.625.959l-.26.258a2.309,2.309,0,0,0-.428.585,2.328,2.328,0,0,0-.423-.589L4.257.953A2.376,2.376,0,0,0,1.517.5l1.931,1.96a2.371,2.371,0,0,0-.767-.133l-.366,0A2.376,2.376,0,0,0,.054,3.935l2.719.012a2.317,2.317,0,0,0-.589.423l-.26.258a2.376,2.376,0,0,0-.458,2.74l2.882-2.84a15,15,0,0,1-3.09,8.162,9.84,9.84,0,0,0-1.242-.268L0,15.942l6.228.027-.012-.015A9.828,9.828,0,0,0,2.638,13.193ZM1.9,15.681l-.542,0,0-.542.541,0Zm1.627-.534-.542,0,0-.542.542,0Zm0,0" transform="translate(0 0)" fill="#2C2F33"/>
  </g>
</svg>
