<svg xmlns="http://www.w3.org/2000/svg" width="10.676" height="16" viewBox="0 0 10.676 16">
  <g id="icon_View_Garden" transform="translate(-91.413 0)">
    <g id="Grupo_3192" data-name="Grupo 3192" transform="translate(91.413 0)">
      <path id="Caminho_2276" data-name="Caminho 2276" d="M211.585,1.836c.165-2.3-1.554-1.787-1.554-1.787a1.2,1.2,0,0,0-.855,1.534,16.769,16.769,0,0,0,2.03,2.952A9.563,9.563,0,0,0,211.585,1.836Z" transform="translate(-205.726 0)" fill="#2C2F33"/>
      <path id="Caminho_2277" data-name="Caminho 2277" d="M310.565,98.633a1.2,1.2,0,0,0-1.508-.9,16.786,16.786,0,0,0-3.012,1.939,9.558,9.558,0,0,0,2.687.46C311.027,100.367,310.565,98.633,310.565,98.633Z" transform="translate(-299.927 -94.862)" fill="#2C2F33"/>
      <path id="Caminho_2278" data-name="Caminho 2278" d="M300.21,8.887a1.2,1.2,0,0,0-1.665.56A16.78,16.78,0,0,0,298.06,13a9.566,9.566,0,0,0,2.1-1.742C301.828,9.663,300.21,8.887,300.21,8.887Z" transform="translate(-292.105 -8.481)" fill="#2C2F33"/>
      <path id="Caminho_2279" data-name="Caminho 2279" d="M311.821,178.517a9.568,9.568,0,0,0,1.478,2.291c1.379,1.85,2.344.337,2.344.337a1.2,1.2,0,0,0-.356-1.72A16.79,16.79,0,0,0,311.821,178.517Z" transform="translate(-305.53 -173.356)" fill="#2C2F33"/>
      <path id="Caminho_2280" data-name="Caminho 2280" d="M283.959,194.784a16.786,16.786,0,0,0-1.952-3,17.373,17.373,0,0,0-.449,2.689c-.286,2.289,1.507,1.827,1.507,1.827A1.2,1.2,0,0,0,283.959,194.784Z" transform="translate(-276.039 -186.259)" fill="#2C2F33"/>
      <path id="Caminho_2281" data-name="Caminho 2281" d="M123.479,63.367a1.2,1.2,0,0,0,.475,1.691,16.77,16.77,0,0,0,3.52.665,9.57,9.57,0,0,0-1.633-2.183C124.336,61.791,123.479,63.367,123.479,63.367Z" transform="translate(-122.347 -60.835)" fill="#2C2F33"/>
      <path id="Caminho_2282" data-name="Caminho 2282" d="M110.17,173.8a1.2,1.2,0,0,0,1.593.739,16.766,16.766,0,0,0,2.794-2.242,9.557,9.557,0,0,0-2.72-.178C109.53,172.121,110.17,173.8,110.17,173.8Z" transform="translate(-109.529 -167.13)" fill="#2C2F33"/>
      <path id="Caminho_2283" data-name="Caminho 2283" d="M175.49,198.619h1.049a7.943,7.943,0,0,1-2.79-6.782,1.073,1.073,0,0,0,.673-.46,14.192,14.192,0,0,0,.835-3.6,23.75,23.75,0,0,0-2.157,1.607c-1.95,1.556-.408,2.338-.408,2.338a1.772,1.772,0,0,0,.871.147C173.233,193.223,172.862,196.612,175.49,198.619Z" transform="translate(-169.81 -182.619)" fill="#2C2F33"/>
      <path id="Caminho_2284" data-name="Caminho 2284" d="M91.47,424.178a3.078,3.078,0,0,0,.2,1.661c1.165,2.505,3.875,1.428,3.875,1.428C94.3,424.673,91.622,423.681,91.47,424.178Z" transform="translate(-91.413 -411.815)" fill="#2C2F33"/>
    </g>
  </g>
</svg>
