<svg xmlns="http://www.w3.org/2000/svg" width="13.678" height="16" viewBox="0 0 13.678 16">
  <g id="icon_View_Marina" transform="translate(-33.317)">
    <g id="Grupo_3193" data-name="Grupo 3193" transform="translate(33.317)">
      <path id="Caminho_2288" data-name="Caminho 2288" d="M46.988,11.708,46.2,8.183a.269.269,0,0,0-.461-.122L43.31,10.736a.269.269,0,0,0,.214.449l.922-.052a2.73,2.73,0,0,1-1.11,1.415,4.961,4.961,0,0,1-1.669.736.658.658,0,0,1-.815-.639V6.607a2.047,2.047,0,0,0,1.285-1.44h1.986a.555.555,0,1,0,0-1.11H42.094a2.049,2.049,0,0,0-1.241-1.283V2.4a1.3,1.3,0,1,0-1.394,0v.375a2.049,2.049,0,0,0-1.241,1.283H36.187a.555.555,0,0,0,0,1.11h1.986a2.047,2.047,0,0,0,1.285,1.44v6.037a.659.659,0,0,1-.815.64,4.963,4.963,0,0,1-1.669-.736,2.73,2.73,0,0,1-1.11-1.415l.922.052A.269.269,0,0,0,37,10.736L34.573,8.061a.269.269,0,0,0-.461.122l-.788,3.526a.269.269,0,0,0,.408.284l.783-.505a4.069,4.069,0,0,0,1.659,2.2,6.12,6.12,0,0,0,1.507.762A6.55,6.55,0,0,1,40.156,16h0a6.5,6.5,0,0,1,2.475-1.549,6.119,6.119,0,0,0,1.507-.762,4.069,4.069,0,0,0,1.659-2.2l.783.505a.269.269,0,0,0,.408-.284ZM40.156,5.62a.929.929,0,1,1,.929-.929A.93.93,0,0,1,40.156,5.62Z" transform="translate(-33.317)" fill="#2C2F33"/>
    </g>
  </g>
</svg>
