<svg xmlns="http://www.w3.org/2000/svg" width="24" height="24" viewBox="0 0 24 24"><defs><style>.a{fill:#273240;}.b{fill:none;}</style></defs><g transform="translate(-711 -400)"><g transform="translate(672.333 402)"><g transform="translate(42.667)"><path class="a" d="M58.084,18.333H52.25v-.417a.416.416,0,0,0-.417-.417h-.417v-.854a8.333,8.333,0,1,0-.833,0V17.5h-.417a.416.416,0,0,0-.417.417v.417H43.917a.417.417,0,1,0,0,.833H49.75v.417a.416.416,0,0,0,.417.417h1.667a.416.416,0,0,0,.417-.417v-.417h5.833a.417.417,0,1,0,0-.833Zm-5.217-2.744a8.749,8.749,0,0,0,1.492-3.506h3.127A7.518,7.518,0,0,1,52.866,15.589Zm.808-4.339H48.327a17.091,17.091,0,0,1-.243-2.917,17.091,17.091,0,0,1,.243-2.917h5.348a17.091,17.091,0,0,1,.243,2.917A17.091,17.091,0,0,1,53.674,11.25ZM58.5,8.333a7.459,7.459,0,0,1-.59,2.917H54.518a18.408,18.408,0,0,0,0-5.833H57.91A7.459,7.459,0,0,1,58.5,8.333Zm-1.015-3.75H54.358a8.749,8.749,0,0,0-1.492-3.506A7.519,7.519,0,0,1,57.486,4.583ZM51,.833c.941,0,1.955,1.435,2.5,3.75H48.5C49.046,2.269,50.059.833,51,.833Zm-1.866.244a8.748,8.748,0,0,0-1.492,3.506H44.515A7.519,7.519,0,0,1,49.134,1.078ZM43.5,8.333a7.458,7.458,0,0,1,.59-2.917h3.392a18.407,18.407,0,0,0,0,5.833H44.091A7.458,7.458,0,0,1,43.5,8.333Zm1.015,3.75h3.127a8.749,8.749,0,0,0,1.492,3.506A7.518,7.518,0,0,1,44.515,12.083Zm3.981,0H53.5c-.55,2.315-1.563,3.75-2.5,3.75S49.046,14.4,48.5,12.083Zm2.921,7.083h-.833v-.833h.833Z" transform="translate(-42.667)"/></g></g><rect class="b" width="24" height="24" transform="translate(711 400)"/></g></svg>