<svg xmlns="http://www.w3.org/2000/svg" width="24" height="24" viewBox="0 0 24 24"><defs><style>.a{fill:none;}.b{fill:#273240;}</style></defs><g transform="translate(-717 -892)"><rect class="a" width="24" height="24" transform="translate(717 892)"/><path class="b" d="M3,6.2l5.592,5.6H3v2.4h7.992l5.6,5.6,1.008-1L4,5.2Zm14.8,5.6H19v2.4H17.8Zm-2,0H17v2.4H15.8Zm.68-6.5a2.659,2.659,0,0,0,.8-1.9h-1.2A1.482,1.482,0,0,1,14.6,4.88v1.2a3.217,3.217,0,0,1,3.2,3.256V11H19V9.336A4.446,4.446,0,0,0,16.48,5.3ZM13,8.36h1.224A1.542,1.542,0,0,1,15.8,10v1H17V9.728A2.655,2.655,0,0,0,14.224,7.2H13a1.589,1.589,0,0,1-1.48-1.6A1.415,1.415,0,0,1,13,4.2V3a2.68,2.68,0,1,0,0,5.36Zm2,5.784V11.8H12.656Z" transform="translate(718 893.131)"/></g></svg>