<svg xmlns="http://www.w3.org/2000/svg" width="15.392" height="15.044" viewBox="0 0 15.392 15.044">
  <g id="ocup.max." transform="translate(0.35 0.35)">
    <g id="Grupo_7019" data-name="Grupo 7019">
      <circle id="Elipse_170" data-name="Elipse 170" cx="1.212" cy="1.212" r="1.212" transform="translate(6.093)" fill="none" stroke="#2d2d2d" stroke-miterlimit="10" stroke-width="0.7"/>
      <path id="Caminho_10076" data-name="Caminho 10076" d="M198.42,222.86a2.424,2.424,0,1,0-4.847,0V224.1h.79l.794,6.49a.539.539,0,0,0,.535.472h.612a.539.539,0,0,0,.535-.472l.794-6.49h.79Z" transform="translate(-188.693 -216.755)" fill="none" stroke="#2d2d2d" stroke-linejoin="round" stroke-width="0.7"/>
      <circle id="Elipse_171" data-name="Elipse 171" cx="1.125" cy="1.125" r="1.125" transform="translate(1.126 1.056)" fill="none" stroke="#2d2d2d" stroke-miterlimit="10" stroke-width="0.7"/>
      <path id="Caminho_10077" data-name="Caminho 10077" d="M191.468,221.347a2.252,2.252,0,0,0-2.907,2.154v1.155h.733l.737,6.026a.5.5,0,0,0,.5.439h.568a.5.5,0,0,0,.5-.439l.568-4.633" transform="translate(-188.561 -216.777)" fill="none" stroke="#2d2d2d" stroke-linecap="round" stroke-linejoin="round" stroke-width="0.7"/>
      <circle id="Elipse_172" data-name="Elipse 172" cx="1.125" cy="1.125" r="1.125" transform="translate(11.316 1.056)" fill="none" stroke="#2d2d2d" stroke-miterlimit="10" stroke-width="0.7"/>
      <path id="Caminho_10078" data-name="Caminho 10078" d="M200.645,221.347a2.252,2.252,0,0,1,2.907,2.154v1.155h-.733l-.737,6.026a.5.5,0,0,1-.5.439h-.569a.5.5,0,0,1-.5-.439l-.568-4.633" transform="translate(-188.86 -216.777)" fill="none" stroke="#2d2d2d" stroke-linecap="round" stroke-linejoin="round" stroke-width="0.7"/>
    </g>
  </g>
</svg>
