<svg xmlns="http://www.w3.org/2000/svg" width="21.915" height="12.711" viewBox="0 0 21.915 12.711">
  <path id="Runhouse" d="M4705.43,23949.459l-.493-1.207h-8.872l-.5,1.207a.437.437,0,0,1-.415.252.471.471,0,0,1-.15-.023.363.363,0,0,1-.264-.486l.391-.949h-.331a.75.75,0,0,1-.8-.68v-3.979a.755.755,0,0,1,.8-.686h11.408a.749.749,0,0,1,.793.686v3.979a.744.744,0,0,1-.793.68h-.331l.391.949a.371.371,0,0,1-.271.486.426.426,0,0,1-.15.023A.444.444,0,0,1,4705.43,23949.459Zm4.953-1.791a1.331,1.331,0,1,1,1.328,1.334A1.337,1.337,0,0,1,4710.383,23947.668Zm.228-3.469c0-1.928,2.837-2.367,2.837-3.961,0-.871-.583-1.387-1.557-1.387-2.073,0-1.262,2.139-2.837,2.139A.971.971,0,0,1,4708,23940c0-1.586,1.815-3,3.792-3,2.074,0,4.118.955,4.118,3.238,0,2.111-2.417,2.922-2.934,3.686-.391.564-.258,1.365-1.328,1.365A1.035,1.035,0,0,1,4710.611,23944.2Zm-13.247-3.389v-.078a.866.866,0,0,1,.865-.865h4.658a.866.866,0,0,1,.866.865v.078Zm7.6-.434v-.078a1.819,1.819,0,0,0-1.953-1.629h-5.019a1.813,1.813,0,0,0-1.947,1.629v.078h-.493v-1.592a1.991,1.991,0,0,1,2.146-1.785h5.614a1.989,1.989,0,0,1,2.14,1.785v1.592Z" transform="translate(-4693.998 -23937)" fill="#2c2f33"/>
</svg>
