<svg xmlns="http://www.w3.org/2000/svg" width="13.001" height="12.713" viewBox="0 0 13.001 12.713">
  <path id="Single" d="M4705.43,23949.461l-.493-1.207h-8.872l-.5,1.207a.438.438,0,0,1-.415.254.427.427,0,0,1-.15-.025.367.367,0,0,1-.265-.486l.391-.949h-.331a.751.751,0,0,1-.8-.686v-3.973a.751.751,0,0,1,.8-.686h11.408a.745.745,0,0,1,.793.686v3.973a.745.745,0,0,1-.793.686h-.331l.391.949a.374.374,0,0,1-.271.486.383.383,0,0,1-.15.025A.445.445,0,0,1,4705.43,23949.461Zm-8.066-8.654v-.072a.871.871,0,0,1,.865-.871h4.658a.871.871,0,0,1,.866.871v.072Zm7.6-.434v-.072a1.815,1.815,0,0,0-1.953-1.629h-5.019a1.809,1.809,0,0,0-1.947,1.629v.072h-.493v-1.586a1.991,1.991,0,0,1,2.146-1.785h5.614a1.989,1.989,0,0,1,2.14,1.785v1.586Z" transform="translate(-4693.998 -23937.002)" fill="#2c2f33"/>
</svg>
