<svg xmlns="http://www.w3.org/2000/svg" width="30" height="12.711" viewBox="0 0 30 12.711">
  <g id="Sofa" transform="translate(0 -87.994)">
    <path id="Caminho_2135" data-name="Caminho 2135" d="M29.2,204.076H.8a.747.747,0,0,0-.8.684v3.974a.747.747,0,0,0,.8.684h.331l-.391.95a.369.369,0,0,0,.269.485.508.508,0,0,0,.148.022.444.444,0,0,0,.417-.253l.5-1.2H27.935l.5,1.2a.444.444,0,0,0,.417.253.508.508,0,0,0,.148-.022.369.369,0,0,0,.269-.485l-.391-.95H29.2a.747.747,0,0,0,.8-.684V204.76A.747.747,0,0,0,29.2,204.076Z" transform="translate(0 -110.17)" fill="#2c2f33"/>
    <path id="Caminho_2136" data-name="Caminho 2136" d="M251.131,156.262c-.479,0-.868,1.394-.868,3.107v.268h10.392v-.268c0-1.713-.389-3.107-.868-3.107Z" transform="translate(-234.018 -68.268)" fill="#2c2f33"/>
    <path id="Caminho_2137" data-name="Caminho 2137" d="M77.193,156.262c-.479,0-.868,1.394-.868,3.107v.268H86.717v-.268c0-1.713-.389-3.107-.868-3.107Z" transform="translate(-72.962 -68.268)" fill="#2c2f33"/>
  </g>
</svg>
