<svg xmlns="http://www.w3.org/2000/svg" width="28.003" height="12.711" viewBox="0 0 28.003 12.711">
  <path id="Twin" d="M4720.432,23949.459l-.5-1.207h-8.872l-.493,1.207a.443.443,0,0,1-.415.252.448.448,0,0,1-.15-.023.37.37,0,0,1-.271-.486l.391-.949h-.331a.745.745,0,0,1-.793-.68v-3.979a.749.749,0,0,1,.793-.686H4721.2a.754.754,0,0,1,.8.686v3.979a.75.75,0,0,1-.8.68h-.331l.391.949a.363.363,0,0,1-.264.486.45.45,0,0,1-.15.023A.444.444,0,0,1,4720.432,23949.459Zm-15,0-.493-1.207h-8.872l-.5,1.207a.437.437,0,0,1-.415.252.471.471,0,0,1-.15-.023.363.363,0,0,1-.264-.486l.391-.949h-.331a.75.75,0,0,1-.8-.68v-3.979a.755.755,0,0,1,.8-.686h11.408a.749.749,0,0,1,.793.686v3.979a.744.744,0,0,1-.793.68h-.331l.391.949a.371.371,0,0,1-.271.486.426.426,0,0,1-.15.023A.444.444,0,0,1,4705.43,23949.459Zm6.931-8.648v-.078a.867.867,0,0,1,.871-.865h4.652a.867.867,0,0,1,.872.865v.078Zm-15,0v-.078a.866.866,0,0,1,.865-.865h4.658a.866.866,0,0,1,.866.865v.078Zm22.594-.434v-.078a1.813,1.813,0,0,0-1.947-1.629h-5.019a1.819,1.819,0,0,0-1.954,1.629v.078h-.487v-1.592a1.989,1.989,0,0,1,2.14-1.785h5.62a1.989,1.989,0,0,1,2.14,1.785v1.592Zm-15,0v-.078a1.819,1.819,0,0,0-1.953-1.629h-5.019a1.813,1.813,0,0,0-1.947,1.629v.078h-.493v-1.592a1.991,1.991,0,0,1,2.146-1.785h5.614a1.989,1.989,0,0,1,2.14,1.785v1.592Z" transform="translate(-4693.998 -23937)" fill="#2c2f33"/>
</svg>
