<svg xmlns="http://www.w3.org/2000/svg" width="24" height="24" viewBox="0 0 24 24"><defs><style>.a{fill:none;}.b{fill:#273240;fill-rule:evenodd;}</style></defs><g transform="translate(-260 -704)"><rect class="a" width="24" height="24" transform="translate(260 704)"/><g transform="translate(262 709)"><path class="b" d="M11.632,15a1.5,1.5,0,1,0,1.5,1.5A1.5,1.5,0,0,0,11.632,15Zm0,4a2.5,2.5,0,1,1,2.5-2.5A2.5,2.5,0,0,1,11.632,19Z" transform="translate(-2 -5)"/><path class="b" d="M20.764,10.868a.5.5,0,0,1-.415-.221,10.5,10.5,0,0,0-17.434,0,.5.5,0,0,1-.83-.558,11.5,11.5,0,0,1,19.094,0,.5.5,0,0,1-.136.694A.494.494,0,0,1,20.764,10.868Z" transform="translate(-2 -5)"/><path class="b" d="M18.583,13.049a.5.5,0,0,1-.435-.252,7.49,7.49,0,0,0-13.033,0,.5.5,0,1,1-.869-.5,8.492,8.492,0,0,1,14.772,0,.5.5,0,0,1-.435.748Z" transform="translate(-2 -5)"/><path class="b" d="M16.32,15.312a.5.5,0,0,1-.471-.33,4.472,4.472,0,0,0-8.433,0,.5.5,0,1,1-.942-.34,5.474,5.474,0,0,1,10.317,0,.5.5,0,0,1-.3.641A.533.533,0,0,1,16.32,15.312Z" transform="translate(-2 -5)"/></g></g></svg>